<?xml version="1.0" encoding="UTF-8" standalone="no"?>
<!DOCTYPE svg PUBLIC "-//W3C//DTD SVG 1.0//EN" "http://www.w3.org/TR/2001/PR-SVG-20010719/DTD/svg10.dtd">
<svg width="49cm" height="32cm" viewBox="266 -197 965 632" xmlns="http://www.w3.org/2000/svg" xmlns:xlink="http://www.w3.org/1999/xlink">
  <g>
    <rect style="fill: #ffffff" x="267.024" y="-14.7455" width="962.841" height="448.458"/>
    <rect style="fill: none; fill-opacity:0; stroke-width: 2; stroke: #000000" x="267.024" y="-14.7455" width="962.841" height="448.458"/>
    <rect style="fill: #ffffff" x="267.024" y="-34.7455" width="134.9" height="20"/>
    <rect style="fill: none; fill-opacity:0; stroke-width: 2; stroke: #000000" x="267.024" y="-34.7455" width="134.9" height="20"/>
    <text font-size="12.7998" style="fill: #000000;text-anchor:start;font-family:monospace;font-style:normal;font-weight:normal" x="269.024" y="-20.7455">javax.swing.table</text>
  </g>
  <g>
    <rect style="fill: #ffffff" x="766.8" y="30.2652" width="387.3" height="44"/>
    <rect style="fill: none; fill-opacity:0; stroke-width: 2; stroke: #000000" x="766.8" y="30.2652" width="387.3" height="44"/>
    <text font-size="12.8" style="fill: #000000;text-anchor:middle;font-family:monospace;font-style:normal;font-weight:normal" x="960.45" y="45.4652">&lt;&lt;Interface&gt;&gt;</text>
    <text font-size="16" style="fill: #000000;text-anchor:middle;font-family:sans-serif;font-style:normal;font-weight:700" x="960.45" y="66.2652">TableModel</text>
    <rect style="fill: #ffffff" x="766.8" y="74.2652" width="387.3" height="100"/>
    <rect style="fill: none; fill-opacity:0; stroke-width: 2; stroke: #000000" x="766.8" y="74.2652" width="387.3" height="100"/>
    <text font-size="12.8" style="fill: #000000;text-anchor:start;font-family:monospace;font-style:normal;font-weight:normal" x="769.8" y="87.4652">+getColumnCount(): int</text>
    <text font-size="12.8" style="fill: #000000;text-anchor:start;font-family:monospace;font-style:normal;font-weight:normal" x="769.8" y="103.465">+getRowCount(): int</text>
    <text font-size="12.8" style="fill: #000000;text-anchor:start;font-family:monospace;font-style:normal;font-weight:normal" x="769.8" y="119.465">+getValueAt(rowIndex:int,columnIndex:int): object</text>
    <text font-size="12.8" style="fill: #000000;text-anchor:start;font-family:monospace;font-style:normal;font-weight:normal" x="769.8" y="135.465">+getColumnAt (rowIndex...)</text>
    <text font-size="12.8" style="fill: #000000;text-anchor:start;font-family:monospace;font-style:normal;font-weight:normal" x="769.8" y="151.465">+getColumnName (columnIndex...)</text>
    <text font-size="12.8" style="fill: #000000;text-anchor:start;font-family:monospace;font-style:normal;font-weight:normal" x="769.8" y="167.465">+...</text>
    <rect style="fill: #ffffff" x="766.8" y="174.265" width="387.3" height="8"/>
    <rect style="fill: none; fill-opacity:0; stroke-width: 2; stroke: #000000" x="766.8" y="174.265" width="387.3" height="8"/>
  </g>
  <g>
    <rect style="fill: #ffffff" x="365.11" y="-190.012" width="62.8" height="28"/>
    <rect style="fill: none; fill-opacity:0; stroke-width: 2; stroke: #bfbfbf" x="365.11" y="-190.012" width="62.8" height="28"/>
    <text font-size="16" style="fill: #000000;text-anchor:middle;font-family:sans-serif;font-style:normal;font-weight:700" x="396.51" y="-170.012">Object</text>
    <rect style="fill: #ffffff" x="365.11" y="-162.012" width="62.8" height="8"/>
    <rect style="fill: none; fill-opacity:0; stroke-width: 2; stroke: #bfbfbf" x="365.11" y="-162.012" width="62.8" height="8"/>
    <rect style="fill: #ffffff" x="365.11" y="-154.012" width="62.8" height="8"/>
    <rect style="fill: none; fill-opacity:0; stroke-width: 2; stroke: #bfbfbf" x="365.11" y="-154.012" width="62.8" height="8"/>
  </g>
  <g>
    <rect style="fill: #ffffff" x="311.402" y="27.2" width="364.2" height="44"/>
    <rect style="fill: none; fill-opacity:0; stroke-width: 2; stroke: #000000" x="311.402" y="27.2" width="364.2" height="44"/>
    <text font-size="12.8" style="fill: #000000;text-anchor:middle;font-family:monospace;font-style:normal;font-weight:normal" x="493.502" y="42.4">&lt;&lt;Abstract&gt;&gt;</text>
    <text font-size="16" style="fill: #000000;text-anchor:middle;font-family:sans-serif;font-style:normal;font-weight:700" x="493.502" y="63.2">AbstractTableModel</text>
    <rect style="fill: #ffffff" x="311.402" y="71.2" width="364.2" height="52"/>
    <rect style="fill: none; fill-opacity:0; stroke-width: 2; stroke: #000000" x="311.402" y="71.2" width="364.2" height="52"/>
    <text font-size="12.8" style="fill: #000000;text-anchor:start;font-family:monospace;font-style:normal;font-weight:normal" x="314.402" y="84.4">+getColumnclass(columnIndex:int): Object.class</text>
    <text font-size="12.8" style="fill: #000000;text-anchor:start;font-family:monospace;font-style:normal;font-weight:normal" x="314.402" y="100.4">+getColumnName(column:int): String</text>
    <text font-size="12.8" style="fill: #000000;text-anchor:start;font-family:monospace;font-style:normal;font-weight:normal" x="314.402" y="116.4">+...()</text>
    <rect style="fill: #ffffff" x="311.402" y="123.2" width="364.2" height="8"/>
    <rect style="fill: none; fill-opacity:0; stroke-width: 2; stroke: #000000" x="311.402" y="123.2" width="364.2" height="8"/>
  </g>
  <g>
    <rect style="fill: #ffffff" x="503.668" y="-195.867" width="110.1" height="44"/>
    <rect style="fill: none; fill-opacity:0; stroke-width: 2; stroke: #bfbfbf" x="503.668" y="-195.867" width="110.1" height="44"/>
    <text font-size="12.8" style="fill: #000000;text-anchor:middle;font-family:monospace;font-style:normal;font-weight:normal" x="558.718" y="-180.667">&lt;&lt;Interface&gt;&gt;</text>
    <text font-size="16" style="fill: #000000;text-anchor:middle;font-family:sans-serif;font-style:normal;font-weight:700" x="558.718" y="-159.867">Serializable</text>
    <rect style="fill: #ffffff" x="503.668" y="-151.867" width="110.1" height="8"/>
    <rect style="fill: none; fill-opacity:0; stroke-width: 2; stroke: #bfbfbf" x="503.668" y="-151.867" width="110.1" height="8"/>
    <rect style="fill: #ffffff" x="503.668" y="-143.867" width="110.1" height="8"/>
    <rect style="fill: none; fill-opacity:0; stroke-width: 2; stroke: #bfbfbf" x="503.668" y="-143.867" width="110.1" height="8"/>
  </g>
  <g>
    <rect style="fill: #ffffff" x="757.848" y="264.334" width="371.9" height="28"/>
    <rect style="fill: none; fill-opacity:0; stroke-width: 2; stroke: #000000" x="757.848" y="264.334" width="371.9" height="28"/>
    <text font-size="16" style="fill: #000000;text-anchor:middle;font-family:sans-serif;font-style:normal;font-weight:700" x="943.798" y="284.334">DefaultTableModel</text>
    <rect style="fill: #ffffff" x="757.848" y="292.334" width="371.9" height="52"/>
    <rect style="fill: none; fill-opacity:0; stroke-width: 2; stroke: #000000" x="757.848" y="292.334" width="371.9" height="52"/>
    <text font-size="12.8" style="fill: #000000;text-anchor:start;font-family:monospace;font-style:normal;font-weight:normal" x="760.848" y="305.534">#columnIdentifiers: Vector</text>
    <text font-size="12.8" style="fill: #000000;text-anchor:start;font-family:monospace;font-style:normal;font-weight:normal" x="760.848" y="321.534">#dataVector: Vector of Vectors of Object values</text>
    <text font-size="12.8" style="fill: #000000;text-anchor:start;font-family:monospace;font-style:normal;font-weight:normal" x="760.848" y="337.534">+</text>
    <rect style="fill: #ffffff" x="757.848" y="344.334" width="371.9" height="52"/>
    <rect style="fill: none; fill-opacity:0; stroke-width: 2; stroke: #000000" x="757.848" y="344.334" width="371.9" height="52"/>
    <text font-size="12.8" style="fill: #000000;text-anchor:start;font-family:monospace;font-style:normal;font-weight:normal" x="760.848" y="357.534">+()</text>
    <text font-size="12.8" style="fill: #000000;text-anchor:start;font-family:monospace;font-style:normal;font-weight:normal" x="760.848" y="373.534">+()</text>
    <text font-size="12.8" style="fill: #000000;text-anchor:start;font-family:monospace;font-style:normal;font-weight:normal" x="760.848" y="389.534">+()</text>
  </g>
  <g>
    <polyline style="fill: none; fill-opacity:0; stroke-width: 2; stroke: #000000" points="493.502,150.443 493.502,206.27 943.798,206.27 943.798,264.334 "/>
    <polygon style="fill: #ffffff" points="501.502,150.443 493.502,134.443 485.502,150.443 "/>
    <polygon style="fill: none; fill-opacity:0; stroke-width: 2; stroke: #000000" points="501.502,150.443 493.502,134.443 485.502,150.443 "/>
  </g>
  <g>
    <polyline style="fill: none; fill-opacity:0; stroke-width: 2; stroke: #000000" points="396.51,-127.776 396.51,-82.0658 493.502,-82.0658 493.502,27.2 "/>
    <polygon style="fill: #ffffff" points="404.51,-127.776 396.51,-143.776 388.51,-127.776 "/>
    <polygon style="fill: none; fill-opacity:0; stroke-width: 2; stroke: #000000" points="404.51,-127.776 396.51,-143.776 388.51,-127.776 "/>
  </g>
  <g>
    <polyline style="fill: none; fill-opacity:0; stroke-width: 2; stroke-dasharray: 8; stroke: #000000" points="558.718,-117.631 558.718,-46.3333 493.502,-46.3333 493.502,27.2 "/>
    <polygon style="fill: #ffffff" points="566.718,-117.631 558.718,-133.631 550.718,-117.631 "/>
    <polygon style="fill: none; fill-opacity:0; stroke-width: 2; stroke: #000000" points="566.718,-117.631 558.718,-133.631 550.718,-117.631 "/>
  </g>
  <g>
    <polyline style="fill: none; fill-opacity:0; stroke-width: 2; stroke-dasharray: 8; stroke: #000000" points="748.564,100.265 713.201,100.265 713.201,81.2 675.602,81.2 "/>
    <polygon style="fill: #ffffff" points="748.564,108.265 764.564,100.265 748.564,92.2652 "/>
    <polygon style="fill: none; fill-opacity:0; stroke-width: 2; stroke: #000000" points="748.564,108.265 764.564,100.265 748.564,92.2652 "/>
  </g>
</svg>
